<svg xmlns="http://www.w3.org/2000/svg" width="500" height="500" viewBox="0 0 500 500" version="1.1"><path d="M 245.059 43.105 C 243.167 44.259, 239.567 46.903, 237.059 48.980 C 234.552 51.058, 229.821 53.741, 226.546 54.941 C 223.272 56.142, 212.922 61.627, 203.546 67.130 C 194.171 72.633, 160.175 92.293, 128 110.818 L 69.500 144.501 69.227 161.030 L 68.954 177.560 78.227 182.984 C 83.327 185.967, 94.475 192.430, 103 197.347 C 131.814 213.963, 144.477 221.281, 150.500 224.798 C 153.800 226.725, 159.425 229.964, 163 231.995 C 166.575 234.027, 180.975 242.333, 195 250.452 C 209.025 258.572, 227.129 269.033, 235.230 273.699 L 249.961 282.182 267.730 271.906 C 277.504 266.254, 296.525 255.250, 310 247.453 C 323.475 239.655, 344.625 227.449, 357 220.328 C 369.375 213.208, 390.735 200.883, 404.467 192.941 C 418.199 184.998, 429.797 178.616, 430.241 178.758 C 430.684 178.900, 430.924 171.303, 430.774 161.876 L 430.500 144.737 392.500 122.793 C 371.600 110.724, 340.775 92.934, 324 83.261 C 285.583 61.107, 271.861 53.154, 260.370 46.381 C 255.348 43.421, 250.623 41.002, 249.870 41.004 C 249.116 41.006, 246.952 41.951, 245.059 43.105 M 440 147.941 C 440 149.009, 440.450 150.160, 441 150.500 C 441.567 150.851, 442 150.010, 442 148.559 C 442 147.152, 441.550 146, 441 146 C 440.450 146, 440 146.873, 440 147.941" stroke="none" fill="#5aa72d" fill-rule="evenodd"/><path d="M 69 265.486 L 69 352.972 72.750 355.347 C 74.813 356.653, 83.025 361.459, 91 366.028 C 98.975 370.596, 107.975 375.793, 111 377.577 C 114.025 379.361, 123.475 384.832, 132 389.734 C 167.556 410.181, 184.575 420.003, 203.500 430.999 C 244.322 454.717, 248.968 457.242, 250.879 456.742 C 252.783 456.244, 265.435 449.016, 355.500 396.975 C 382.450 381.403, 410.458 365.251, 417.739 361.081 L 430.978 353.500 430.989 266.309 C 430.995 218.354, 430.663 178.934, 430.250 178.710 C 429.837 178.485, 418.700 184.588, 405.500 192.271 C 392.300 199.955, 369.350 213.229, 354.500 221.770 C 339.650 230.311, 318.050 242.775, 306.500 249.468 C 294.950 256.161, 277.504 266.260, 267.730 271.910 L 249.961 282.182 235.230 273.699 C 227.129 269.033, 209.025 258.572, 195 250.452 C 180.975 242.333, 166.575 234.027, 163 231.995 C 159.425 229.964, 153.800 226.725, 150.500 224.798 C 144.194 221.116, 129.488 212.620, 102 196.780 C 92.925 191.550, 81.975 185.185, 77.667 182.636 C 73.359 180.086, 69.647 178, 69.417 178 C 69.188 178, 69 217.369, 69 265.486" stroke="none" fill="#533827" fill-rule="evenodd"/></svg>